<svg xmlns="http://www.w3.org/2000/svg" viewBox="0 0 512 512">
  <defs><linearGradient id="g" x1="0" y1="0" x2="0" y2="1"><stop offset="0" stop-color="#bef264"/><stop offset="1" stop-color="#4d7c0f"/></linearGradient></defs>
  <rect width="512" height="512" fill="url(#g)"/>
  <!-- roller -->
  <rect x="88" y="104" width="296" height="104" rx="26" fill="#fff"/>
  <path d="M384 156h44a24 24 0 0 1 24 24v36a24 24 0 0 1-24 24H280a24 24 0 0 0-24 24v20" fill="none" stroke="#fff" stroke-width="22" stroke-linecap="round" stroke-linejoin="round"/>
  <rect x="226" y="268" width="60" height="150" rx="22" fill="#fff"/>
  <path d="M104 208v78a18 18 0 0 0 36 0v-78z" fill="#fde047"/>
  <path d="M162 208v40a14 14 0 0 0 28 0v-40z" fill="#fde047"/>
</svg>
